<mxfile host="Electron" agent="Mozilla/5.0 (Windows NT 10.0; Win64; x64) AppleWebKit/537.36 (KHTML, like Gecko) draw.io/28.0.6 Chrome/138.0.7204.100 Electron/37.2.3 Safari/537.36" version="28.0.6">
  <diagram name="Page-1" id="ZSjjefCd0yE1jSEw4V3s">
    <mxGraphModel dx="1042" dy="626" grid="1" gridSize="10" guides="1" tooltips="1" connect="1" arrows="1" fold="1" page="1" pageScale="1" pageWidth="850" pageHeight="1100" math="0" shadow="0">
      <root>
        <mxCell id="0" />
        <mxCell id="1" parent="0" />
        <mxCell id="N1zRS4VMsSR2arHAisYy-4" value="" style="rounded=0;whiteSpace=wrap;html=1;glass=0;shadow=0;gradientColor=none;fillColor=none;" parent="1" vertex="1">
          <mxGeometry x="200" y="120" width="120" height="400" as="geometry" />
        </mxCell>
        <mxCell id="N1zRS4VMsSR2arHAisYy-1" value="" style="rounded=0;whiteSpace=wrap;html=1;" parent="1" vertex="1">
          <mxGeometry x="30" y="120" width="120" height="400" as="geometry" />
        </mxCell>
        <mxCell id="N1zRS4VMsSR2arHAisYy-2" value="ERP" style="image;aspect=fixed;html=1;points=[];align=center;fontSize=12;image=img/lib/azure2/general/Files.svg;" parent="1" vertex="1">
          <mxGeometry x="62.56999999999999" y="180" width="54.86" height="60" as="geometry" />
        </mxCell>
        <mxCell id="N1zRS4VMsSR2arHAisYy-3" value="CRM" style="image;aspect=fixed;html=1;points=[];align=center;fontSize=12;image=img/lib/azure2/general/Files.svg;" parent="1" vertex="1">
          <mxGeometry x="62.56999999999999" y="350" width="54.86" height="60" as="geometry" />
        </mxCell>
        <mxCell id="N1zRS4VMsSR2arHAisYy-5" value="&lt;font style=&quot;color: rgb(0, 0, 0);&quot;&gt;BRONZE LAYER&lt;/font&gt;" style="text;html=1;align=center;verticalAlign=middle;whiteSpace=wrap;rounded=0;shadow=0;glass=0;fillColor=#FFCC99;" parent="1" vertex="1">
          <mxGeometry x="200" y="80" width="120" height="30" as="geometry" />
        </mxCell>
        <mxCell id="N1zRS4VMsSR2arHAisYy-6" value="&lt;font style=&quot;color: rgb(0, 0, 0);&quot;&gt;crm_sales_details&lt;/font&gt;" style="text;html=1;align=center;verticalAlign=middle;whiteSpace=wrap;rounded=0;fillColor=#FFCC99;" parent="1" vertex="1">
          <mxGeometry x="210" y="150" width="100" height="30" as="geometry" />
        </mxCell>
        <mxCell id="N1zRS4VMsSR2arHAisYy-7" value="&lt;font style=&quot;color: rgb(0, 0, 0);&quot;&gt;crm_cust_info&lt;/font&gt;" style="text;html=1;align=center;verticalAlign=middle;whiteSpace=wrap;rounded=0;fillColor=#FFCC99;" parent="1" vertex="1">
          <mxGeometry x="210" y="195" width="100" height="30" as="geometry" />
        </mxCell>
        <mxCell id="N1zRS4VMsSR2arHAisYy-8" value="&lt;font style=&quot;color: rgb(0, 0, 0);&quot;&gt;crm_prd_info&lt;/font&gt;" style="text;html=1;align=center;verticalAlign=middle;whiteSpace=wrap;rounded=0;fillColor=#FFCC99;" parent="1" vertex="1">
          <mxGeometry x="210" y="240" width="100" height="30" as="geometry" />
        </mxCell>
        <mxCell id="f95BhW0dn4aelfc3Jz8W-15" style="edgeStyle=orthogonalEdgeStyle;rounded=0;orthogonalLoop=1;jettySize=auto;html=1;" parent="1" source="N1zRS4VMsSR2arHAisYy-9" target="f95BhW0dn4aelfc3Jz8W-8" edge="1">
          <mxGeometry relative="1" as="geometry">
            <Array as="points">
              <mxPoint x="390" y="335" />
              <mxPoint x="390" y="335" />
            </Array>
          </mxGeometry>
        </mxCell>
        <mxCell id="N1zRS4VMsSR2arHAisYy-9" value="&lt;font style=&quot;color: rgb(0, 0, 0);&quot;&gt;erp_cust_az12&lt;/font&gt;" style="text;html=1;align=center;verticalAlign=middle;whiteSpace=wrap;rounded=0;fillColor=#FFCC99;" parent="1" vertex="1">
          <mxGeometry x="210" y="320" width="100" height="30" as="geometry" />
        </mxCell>
        <mxCell id="N1zRS4VMsSR2arHAisYy-10" value="&lt;font style=&quot;color: rgb(0, 0, 0);&quot;&gt;erp_loc_a101&lt;/font&gt;" style="text;html=1;align=center;verticalAlign=middle;whiteSpace=wrap;rounded=0;fillColor=#FFCC99;" parent="1" vertex="1">
          <mxGeometry x="210" y="365" width="100" height="30" as="geometry" />
        </mxCell>
        <mxCell id="f95BhW0dn4aelfc3Jz8W-18" style="edgeStyle=orthogonalEdgeStyle;rounded=0;orthogonalLoop=1;jettySize=auto;html=1;entryX=0;entryY=0.75;entryDx=0;entryDy=0;" parent="1" source="N1zRS4VMsSR2arHAisYy-11" target="f95BhW0dn4aelfc3Jz8W-8" edge="1">
          <mxGeometry relative="1" as="geometry" />
        </mxCell>
        <mxCell id="N1zRS4VMsSR2arHAisYy-11" value="&lt;font style=&quot;color: rgb(0, 0, 0);&quot;&gt;erp_px_cat_g1v2&lt;/font&gt;" style="text;html=1;align=center;verticalAlign=middle;whiteSpace=wrap;rounded=0;fillColor=#FFCC99;" parent="1" vertex="1">
          <mxGeometry x="210" y="410" width="100" height="30" as="geometry" />
        </mxCell>
        <mxCell id="N1zRS4VMsSR2arHAisYy-19" value="" style="strokeWidth=2;html=1;shape=mxgraph.flowchart.annotation_2;align=left;labelPosition=right;pointerEvents=1;" parent="1" vertex="1">
          <mxGeometry x="127.43" y="150" width="72.57" height="130" as="geometry" />
        </mxCell>
        <mxCell id="N1zRS4VMsSR2arHAisYy-20" value="" style="strokeWidth=2;html=1;shape=mxgraph.flowchart.annotation_2;align=left;labelPosition=right;pointerEvents=1;" parent="1" vertex="1">
          <mxGeometry x="127.43" y="310" width="72.57" height="140" as="geometry" />
        </mxCell>
        <mxCell id="f95BhW0dn4aelfc3Jz8W-1" value="&lt;font style=&quot;color: rgb(0, 0, 0);&quot;&gt;SILVER LAYER&lt;/font&gt;" style="text;html=1;align=center;verticalAlign=middle;whiteSpace=wrap;rounded=0;shadow=0;glass=0;fillColor=#CCE5FF;" parent="1" vertex="1">
          <mxGeometry x="390" y="80" width="120" height="30" as="geometry" />
        </mxCell>
        <mxCell id="f95BhW0dn4aelfc3Jz8W-2" value="&lt;font style=&quot;color: rgb(0, 0, 0);&quot;&gt;crm_sales_details&lt;/font&gt;" style="text;html=1;align=center;verticalAlign=middle;whiteSpace=wrap;rounded=0;fillColor=#CCE5FF;" parent="1" vertex="1">
          <mxGeometry x="400" y="150" width="100" height="30" as="geometry" />
        </mxCell>
        <mxCell id="f95BhW0dn4aelfc3Jz8W-3" value="&lt;font style=&quot;color: rgb(0, 0, 0);&quot;&gt;crm_cust_info&lt;/font&gt;" style="text;html=1;align=center;verticalAlign=middle;whiteSpace=wrap;rounded=0;fillColor=#CCE5FF;" parent="1" vertex="1">
          <mxGeometry x="400" y="195" width="100" height="30" as="geometry" />
        </mxCell>
        <mxCell id="f95BhW0dn4aelfc3Jz8W-4" value="&lt;font style=&quot;color: rgb(0, 0, 0);&quot;&gt;crm_prd_info&lt;/font&gt;" style="text;html=1;align=center;verticalAlign=middle;whiteSpace=wrap;rounded=0;fillColor=#CCE5FF;" parent="1" vertex="1">
          <mxGeometry x="400" y="240" width="100" height="30" as="geometry" />
        </mxCell>
        <mxCell id="f95BhW0dn4aelfc3Jz8W-5" value="&lt;font style=&quot;color: rgb(0, 0, 0);&quot;&gt;erp_cust_az12&lt;/font&gt;" style="text;html=1;align=center;verticalAlign=middle;whiteSpace=wrap;rounded=0;fillColor=#CCE5FF;" parent="1" vertex="1">
          <mxGeometry x="400" y="320" width="100" height="30" as="geometry" />
        </mxCell>
        <mxCell id="f95BhW0dn4aelfc3Jz8W-6" value="&lt;font style=&quot;color: rgb(0, 0, 0);&quot;&gt;erp_loc_a101&lt;/font&gt;" style="text;html=1;align=center;verticalAlign=middle;whiteSpace=wrap;rounded=0;fillColor=#CCE5FF;" parent="1" vertex="1">
          <mxGeometry x="400" y="365" width="100" height="30" as="geometry" />
        </mxCell>
        <mxCell id="f95BhW0dn4aelfc3Jz8W-7" value="&lt;font style=&quot;color: rgb(0, 0, 0);&quot;&gt;erp_px_cat_g1v2&lt;/font&gt;" style="text;html=1;align=center;verticalAlign=middle;whiteSpace=wrap;rounded=0;fillColor=#CCE5FF;" parent="1" vertex="1">
          <mxGeometry x="400" y="410" width="100" height="30" as="geometry" />
        </mxCell>
        <mxCell id="f95BhW0dn4aelfc3Jz8W-8" value="" style="rounded=0;whiteSpace=wrap;html=1;glass=0;shadow=0;gradientColor=none;fillColor=none;" parent="1" vertex="1">
          <mxGeometry x="390" y="120" width="120" height="400" as="geometry" />
        </mxCell>
        <mxCell id="f95BhW0dn4aelfc3Jz8W-9" style="edgeStyle=orthogonalEdgeStyle;rounded=0;orthogonalLoop=1;jettySize=auto;html=1;entryX=0.083;entryY=0.113;entryDx=0;entryDy=0;entryPerimeter=0;" parent="1" source="N1zRS4VMsSR2arHAisYy-6" target="f95BhW0dn4aelfc3Jz8W-8" edge="1">
          <mxGeometry relative="1" as="geometry" />
        </mxCell>
        <mxCell id="f95BhW0dn4aelfc3Jz8W-12" style="edgeStyle=orthogonalEdgeStyle;rounded=0;orthogonalLoop=1;jettySize=auto;html=1;entryX=0.083;entryY=0.225;entryDx=0;entryDy=0;entryPerimeter=0;" parent="1" source="N1zRS4VMsSR2arHAisYy-7" target="f95BhW0dn4aelfc3Jz8W-8" edge="1">
          <mxGeometry relative="1" as="geometry" />
        </mxCell>
        <mxCell id="f95BhW0dn4aelfc3Jz8W-13" style="edgeStyle=orthogonalEdgeStyle;rounded=0;orthogonalLoop=1;jettySize=auto;html=1;entryX=0.083;entryY=0.338;entryDx=0;entryDy=0;entryPerimeter=0;" parent="1" source="N1zRS4VMsSR2arHAisYy-8" target="f95BhW0dn4aelfc3Jz8W-8" edge="1">
          <mxGeometry relative="1" as="geometry" />
        </mxCell>
        <mxCell id="f95BhW0dn4aelfc3Jz8W-16" style="edgeStyle=orthogonalEdgeStyle;rounded=0;orthogonalLoop=1;jettySize=auto;html=1;entryX=0.013;entryY=0.652;entryDx=0;entryDy=0;entryPerimeter=0;" parent="1" source="N1zRS4VMsSR2arHAisYy-10" target="f95BhW0dn4aelfc3Jz8W-8" edge="1">
          <mxGeometry relative="1" as="geometry" />
        </mxCell>
        <mxCell id="pJyT6K3tyDAkSdhj0JVA-2" value="" style="rounded=0;whiteSpace=wrap;html=1;glass=0;shadow=0;gradientColor=none;fillColor=none;" parent="1" vertex="1">
          <mxGeometry x="570" y="120" width="140" height="400" as="geometry" />
        </mxCell>
        <mxCell id="pJyT6K3tyDAkSdhj0JVA-3" value="&lt;font style=&quot;color: rgb(0, 0, 0);&quot;&gt;dim_customer&lt;/font&gt;" style="text;html=1;align=center;verticalAlign=middle;whiteSpace=wrap;rounded=0;fillColor=#FF9933;" parent="1" vertex="1">
          <mxGeometry x="585" y="240" width="110" height="30" as="geometry" />
        </mxCell>
        <mxCell id="pJyT6K3tyDAkSdhj0JVA-4" value="&lt;font style=&quot;color: rgb(0, 0, 0);&quot;&gt;dim_product&lt;/font&gt;" style="text;html=1;align=center;verticalAlign=middle;whiteSpace=wrap;rounded=0;fillColor=#FF9933;" parent="1" vertex="1">
          <mxGeometry x="590" y="340" width="100" height="30" as="geometry" />
        </mxCell>
        <mxCell id="pJyT6K3tyDAkSdhj0JVA-5" value="&lt;font style=&quot;color: rgb(0, 0, 0);&quot;&gt;fact_sales&lt;/font&gt;" style="text;html=1;align=center;verticalAlign=middle;whiteSpace=wrap;rounded=0;fillColor=#FF9933;" parent="1" vertex="1">
          <mxGeometry x="590" y="290" width="100" height="30" as="geometry" />
        </mxCell>
        <mxCell id="pJyT6K3tyDAkSdhj0JVA-9" value="&lt;font style=&quot;color: rgb(0, 0, 0);&quot;&gt;BRONZE LAYER&lt;/font&gt;" style="text;html=1;align=center;verticalAlign=middle;whiteSpace=wrap;rounded=0;shadow=0;glass=0;fillColor=#FF9933;" parent="1" vertex="1">
          <mxGeometry x="590" y="80" width="120" height="30" as="geometry" />
        </mxCell>
        <mxCell id="pJyT6K3tyDAkSdhj0JVA-13" value="" style="endArrow=classic;html=1;rounded=0;entryX=0;entryY=0.75;entryDx=0;entryDy=0;" parent="1" target="pJyT6K3tyDAkSdhj0JVA-5" edge="1">
          <mxGeometry width="50" height="50" relative="1" as="geometry">
            <mxPoint x="495" y="170" as="sourcePoint" />
            <mxPoint x="545" y="120" as="targetPoint" />
            <Array as="points">
              <mxPoint x="540" y="230" />
            </Array>
          </mxGeometry>
        </mxCell>
        <mxCell id="pJyT6K3tyDAkSdhj0JVA-14" value="" style="endArrow=classic;html=1;rounded=0;exitX=0.917;exitY=0.225;exitDx=0;exitDy=0;exitPerimeter=0;" parent="1" source="f95BhW0dn4aelfc3Jz8W-8" edge="1">
          <mxGeometry width="50" height="50" relative="1" as="geometry">
            <mxPoint x="540" y="300" as="sourcePoint" />
            <mxPoint x="590" y="250" as="targetPoint" />
          </mxGeometry>
        </mxCell>
        <mxCell id="pJyT6K3tyDAkSdhj0JVA-15" value="" style="endArrow=classic;html=1;rounded=0;exitX=0.917;exitY=0.55;exitDx=0;exitDy=0;exitPerimeter=0;entryX=0;entryY=0.75;entryDx=0;entryDy=0;" parent="1" source="f95BhW0dn4aelfc3Jz8W-8" target="pJyT6K3tyDAkSdhj0JVA-3" edge="1">
          <mxGeometry width="50" height="50" relative="1" as="geometry">
            <mxPoint x="469.96" y="320" as="sourcePoint" />
            <mxPoint x="559.96" y="360" as="targetPoint" />
          </mxGeometry>
        </mxCell>
        <mxCell id="pJyT6K3tyDAkSdhj0JVA-16" value="" style="endArrow=classic;html=1;rounded=0;entryX=0;entryY=0.75;entryDx=0;entryDy=0;" parent="1" target="pJyT6K3tyDAkSdhj0JVA-3" edge="1">
          <mxGeometry width="50" height="50" relative="1" as="geometry">
            <mxPoint x="500" y="380" as="sourcePoint" />
            <mxPoint x="550" y="330" as="targetPoint" />
          </mxGeometry>
        </mxCell>
        <mxCell id="pJyT6K3tyDAkSdhj0JVA-17" value="" style="endArrow=classic;html=1;rounded=0;entryX=0;entryY=0.25;entryDx=0;entryDy=0;" parent="1" target="pJyT6K3tyDAkSdhj0JVA-4" edge="1">
          <mxGeometry width="50" height="50" relative="1" as="geometry">
            <mxPoint x="500" y="260" as="sourcePoint" />
            <mxPoint x="550" y="210" as="targetPoint" />
          </mxGeometry>
        </mxCell>
        <mxCell id="pJyT6K3tyDAkSdhj0JVA-18" value="" style="endArrow=classic;html=1;rounded=0;entryX=0;entryY=0.25;entryDx=0;entryDy=0;" parent="1" target="pJyT6K3tyDAkSdhj0JVA-4" edge="1">
          <mxGeometry width="50" height="50" relative="1" as="geometry">
            <mxPoint x="500" y="430" as="sourcePoint" />
            <mxPoint x="550" y="380" as="targetPoint" />
          </mxGeometry>
        </mxCell>
      </root>
    </mxGraphModel>
  </diagram>
</mxfile>
